<?xml version="1.0" standalone="no"?>
<!DOCTYPE svg PUBLIC "-//W3C//DTD SVG 20010904//EN"
 "http://www.w3.org/TR/2001/REC-SVG-20010904/DTD/svg10.dtd">
<svg version="1.0" xmlns="http://www.w3.org/2000/svg"
 width="592.000000pt" height="422.000000pt" viewBox="0 0 592.000000 422.000000"
 preserveAspectRatio="xMidYMid meet">

<g transform="translate(0.000000,422.000000) scale(0.100000,-0.100000)"
fill="#000000" stroke="none">
<path d="M2970 3424 c-495 -61 -927 -379 -1123 -827 -78 -178 -126 -389 -94
-415 19 -16 20 -12 42 107 64 338 259 639 550 848 473 340 1130 332 1592 -19
287 -217 455 -483 528 -833 22 -106 23 -109 35 -80 16 39 14 71 -12 175 -98
388 -371 724 -737 906 -103 51 -233 96 -346 119 -78 17 -357 28 -435 19z"/>
<path d="M1424 2825 c-37 -57 -21 -117 40 -150 20 -11 36 -27 36 -36 0 -23 57
-79 80 -79 15 0 20 -7 20 -29 0 -36 43 -91 68 -86 28 6 28 7 -3 14 -16 4 -29
13 -27 19 1 7 -4 15 -11 18 -25 9 -7 55 28 70 39 16 59 39 51 59 -6 17 -26 20
-26 4 0 -5 6 -7 13 -4 6 4 -1 -5 -16 -19 -35 -32 -57 -23 -26 10 12 13 18 24
12 24 -12 0 -60 -50 -47 -50 5 0 1 -5 -9 -11 -26 -15 -87 24 -87 57 0 21 5 24
38 24 37 1 65 15 69 37 1 6 -15 1 -37 -10 -29 -17 -42 -19 -51 -10 -8 8 -6 16
8 30 26 26 48 34 62 20 6 -6 13 -8 17 -5 3 4 -4 11 -15 18 -16 8 -27 8 -43 -1
-34 -18 -58 -41 -52 -50 3 -5 -6 -9 -20 -9 -30 0 -76 52 -76 86 0 14 7 36 16
50 9 13 14 27 11 30 -3 3 -13 -6 -23 -21z"/>
<path d="M4666 2703 c-4 -5 -11 -8 -14 -8 -4 0 -18 -8 -32 -18 -13 -9 -21 -17
-17 -17 4 0 1 -10 -7 -22 -19 -30 -8 -118 15 -118 12 0 12 17 -1 25 -12 8 -13
56 -1 88 12 30 53 57 91 60 38 3 39 17 2 17 -16 0 -32 -3 -36 -7z"/>
<path d="M4710 2589 c0 -5 -4 -7 -10 -4 -11 7 -52 -54 -44 -67 3 -4 -2 -5 -10
-2 -23 9 -42 -7 -22 -18 9 -5 16 -19 16 -31 1 -12 11 -40 24 -62 24 -43 75
-69 115 -58 34 9 24 22 -13 16 -27 -4 -39 0 -64 23 -36 33 -49 91 -20 86 19
-3 73 21 101 46 20 17 22 53 5 70 -15 15 -78 16 -78 1z m55 -9 c4 -6 10 -8 14
-6 3 3 7 -4 7 -14 0 -11 -2 -17 -4 -15 -2 2 -14 -7 -26 -20 -22 -26 -72 -40
-82 -24 -12 19 6 59 34 73 32 18 49 20 57 6z"/>
<path d="M2200 2355 c-8 -9 -22 -14 -32 -12 -18 5 -31 -6 -35 -32 -1 -8 -8
-18 -15 -22 -10 -7 -11 -12 0 -29 6 -11 12 -31 12 -45 0 -17 6 -25 17 -25 9 0
25 -7 35 -16 14 -13 21 -14 32 -5 8 7 24 10 35 6 14 -4 23 0 31 15 6 11 8 20
4 20 -4 0 0 8 10 19 13 14 15 28 10 60 -4 22 -12 42 -18 43 -6 0 -16 2 -23 2
-6 1 -20 9 -31 19 -17 16 -20 16 -32 2z m35 -55 c18 0 26 -39 12 -61 -14 -23
-35 -28 -64 -16 -26 12 -32 34 -18 64 10 22 47 36 53 21 2 -5 10 -8 17 -8z"/>
<path d="M2560 2355 c-7 -8 -21 -15 -31 -15 -14 0 -19 -7 -19 -25 0 -14 -6
-34 -12 -46 -11 -17 -10 -22 5 -30 9 -6 17 -21 17 -35 0 -23 3 -25 30 -19 19
4 30 3 30 -4 0 -16 37 -13 43 3 3 8 16 16 29 18 19 2 22 8 20 31 -2 15 1 27 7
27 16 0 13 26 -4 40 -8 7 -15 21 -15 31 0 12 -12 21 -37 28 -48 14 -48 14 -63
-4z m77 -64 c8 -11 8 -20 1 -29 -6 -7 -8 -15 -4 -19 3 -3 -4 -11 -17 -17 -27
-14 -64 0 -71 26 -6 23 4 59 14 53 5 -3 12 -1 15 5 9 14 46 2 62 -19z"/>
<path d="M5027 2204 c-36 -46 -45 -64 -29 -64 12 1 74 90 70 102 -2 5 -20 -11
-41 -38z"/>
<path d="M3150 2164 c0 -65 17 -147 29 -140 3 2 6 -11 7 -30 1 -39 11 -55 24
-35 11 19 0 187 -15 231 -7 19 -19 36 -28 38 -15 3 -17 -7 -17 -64z"/>
<path d="M3601 2149 c-11 -12 -18 -26 -15 -31 3 -4 1 -8 -4 -8 -14 0 -85 -194
-74 -204 8 -8 42 24 42 39 0 7 6 18 14 25 8 6 12 19 9 27 -4 10 -2 14 3 10 6
-3 18 7 28 24 9 16 15 29 11 29 -3 0 1 10 9 23 19 28 24 79 9 84 -6 2 -20 -6
-32 -18z"/>
<path d="M2320 2129 c0 -8 -18 -10 -56 -7 -51 4 -57 3 -72 -21 -9 -14 -22 -30
-29 -34 -20 -12 -53 -83 -53 -112 0 -14 9 -42 20 -62 17 -33 20 -57 20 -175
l0 -137 253 6 c138 3 255 8 259 12 3 3 3 66 0 139 -4 72 -3 132 1 132 5 0 5 5
2 10 -3 6 -2 10 4 10 17 0 36 84 23 105 -3 5 -7 17 -9 25 -1 8 -16 27 -32 42
-17 15 -31 31 -31 35 0 3 -7 14 -15 23 -13 14 -22 15 -66 6 -41 -8 -52 -8 -60
4 -8 13 -11 12 -20 -2 -12 -22 -38 -23 -45 -3 -4 8 -10 15 -15 15 -5 0 -9 -7
-9 -15 0 -9 -9 -15 -25 -15 -16 0 -25 6 -25 15 0 8 -4 15 -10 15 -5 0 -10 -5
-10 -11z m55 -229 c3 -5 17 -10 30 -10 13 0 27 5 30 10 9 15 41 12 55 -5 19
-22 19 -61 1 -62 -9 0 -30 -7 -48 -14 -39 -16 -107 1 -123 31 -16 30 37 79 55
50z"/>
<path d="M4402 1958 c-7 -7 -12 -18 -12 -25 0 -7 -6 -14 -12 -15 -7 0 -17 -2
-23 -2 -27 -4 -35 -19 -29 -55 4 -27 2 -40 -10 -50 -23 -19 -20 -40 9 -53 14
-6 26 -15 26 -20 6 -36 1 -43 -35 -57 -30 -11 -42 -12 -57 -3 -16 10 -19 9
-19 -3 0 -8 -6 -15 -14 -15 -8 0 -21 -3 -29 -6 -8 -3 -21 2 -30 10 -13 14 -15
13 -20 -4 -7 -27 -67 -29 -67 -2 -1 16 -1 16 -14 0 -9 -13 -27 -18 -60 -18
-25 0 -46 4 -46 9 0 5 -2 16 -5 23 -3 8 6 26 19 41 27 29 26 52 -4 60 -13 3
-20 16 -22 43 -3 36 -5 39 -36 40 -20 1 -41 10 -53 23 -24 26 -24 26 -48 0
-12 -13 -33 -22 -53 -23 -31 -1 -33 -3 -36 -42 -2 -27 2 -45 12 -53 19 -16 36
-6 36 20 0 12 7 19 19 19 10 0 24 7 31 15 12 14 15 14 30 0 9 -8 24 -15 33
-15 10 0 17 -8 17 -18 0 -10 5 -23 11 -29 9 -9 8 -16 -4 -28 -9 -8 -14 -22
-11 -30 4 -9 0 -15 -9 -15 -8 0 -27 -6 -42 -14 -26 -14 -32 -13 -77 10 l-48
24 0 -22 c0 -21 -1 -21 -16 -6 -13 12 -23 14 -41 7 -25 -9 -30 -6 -81 60 l-19
24 -47 -33 c-43 -29 -50 -31 -72 -19 -13 7 -24 16 -24 20 0 3 -11 14 -25 23
-23 15 -27 15 -70 -10 l-46 -25 -50 42 -50 42 -52 -26 c-51 -25 -52 -25 -78
-6 -41 29 -71 23 -135 -24 -146 -107 -244 -282 -244 -433 l0 -63 33 -6 c17 -3
273 -39 567 -80 294 -41 543 -77 554 -80 12 -2 20 3 23 15 3 11 13 21 22 24
41 11 121 25 173 31 55 6 57 7 60 38 3 29 6 32 33 28 17 -1 42 -9 57 -17 26
-13 31 -12 69 16 50 36 76 39 81 8 3 -21 8 -23 63 -22 96 1 205 16 205 28 0 6
-9 70 -19 143 -20 133 -39 191 -84 251 -25 33 -25 34 -6 53 10 10 19 24 19 29
0 6 11 10 24 10 33 0 46 20 40 62 -4 21 -2 38 5 42 20 13 12 46 -14 56 -17 6
-25 17 -25 34 0 34 -23 50 -50 36 -17 -9 -26 -8 -45 4 -29 19 -37 20 -53 4z
m97 -80 c1 -5 12 -17 23 -28 14 -12 16 -20 8 -25 -7 -4 -9 -17 -6 -31 5 -18 2
-24 -10 -24 -9 0 -22 -6 -28 -14 -14 -17 -86 -10 -86 10 0 7 -8 17 -17 23 -14
8 -15 12 -4 25 7 9 11 23 7 31 -3 10 1 18 12 22 9 4 21 12 25 19 8 15 69 8 76
-8z m-1332 -163 c72 -36 106 -89 111 -171 5 -78 -8 -114 -51 -134 -20 -9 -33
-24 -35 -38 -5 -31 -55 -52 -122 -52 -92 0 -171 59 -196 148 -52 179 126 330
293 247z m453 -68 c32 -15 54 -37 75 -71 62 -102 28 -239 -75 -295 -60 -34
-140 -33 -201 0 -39 22 -44 29 -42 57 2 25 -4 36 -32 58 -31 23 -35 32 -35 72
0 119 111 221 225 206 22 -2 60 -15 85 -27z m185 -37 c10 -11 27 -20 37 -20
11 0 18 -3 16 -7 -2 -5 -10 -25 -18 -45 -8 -21 -17 -38 -20 -38 -11 0 -61 110
-55 120 9 15 20 12 40 -10z m592 4 c44 -21 83 -79 83 -122 0 -77 -66 -142
-143 -142 -28 0 -36 4 -41 24 -4 16 -19 29 -45 39 -32 13 -40 22 -45 51 -11
57 21 117 75 144 53 26 70 27 116 6z m-296 -45 c30 -15 46 -32 60 -64 24 -54
18 -85 -21 -107 -17 -9 -32 -29 -36 -45 -9 -35 -20 -43 -62 -43 -38 0 -89 24
-114 53 -40 45 -35 138 10 179 58 54 98 61 163 27z"/>
<path d="M3190 1512 c0 -4 5 -13 12 -20 9 -9 8 -15 -8 -26 -25 -19 -14 -29 20
-17 30 12 33 31 8 54 -20 18 -32 22 -32 9z"/>
<path d="M3344 1475 c-8 -21 3 -48 19 -43 19 7 22 58 2 58 -8 0 -18 -7 -21
-15z"/>
<path d="M4230 1492 c0 -31 18 -46 39 -32 21 12 9 55 -16 58 -19 3 -23 -1 -23
-26z"/>
<path d="M4096 1501 c-3 -5 2 -17 11 -27 13 -12 14 -19 5 -22 -17 -5 -15 -32
2 -32 38 0 62 62 29 74 -10 3 -23 8 -30 12 -6 3 -14 1 -17 -5z"/>
<path d="M1526 1869 c-26 -31 -31 -48 -27 -106 2 -26 -2 -35 -21 -42 -46 -17
-63 -48 -63 -113 0 -55 3 -62 30 -84 26 -21 28 -26 17 -44 -16 -26 -15 -85 2
-118 20 -38 60 -59 80 -42 14 11 55 19 113 21 21 1 22 5 17 40 l-7 39 36 0
c20 0 48 -5 62 -10 24 -9 32 -6 67 25 47 43 67 42 83 -4 7 -22 14 -30 19 -23
4 7 22 12 41 12 19 0 37 5 41 11 3 6 19 9 35 5 25 -5 31 -1 45 26 22 43 13
102 -21 138 -25 26 -26 30 -15 68 24 78 -25 148 -110 159 -29 4 -40 10 -40 23
0 22 -41 50 -74 50 -26 0 -28 -3 -40 -76 -5 -31 -5 -31 39 -30 85 2 138 -74
102 -149 -18 -38 -49 -55 -102 -55 -21 0 -35 -6 -39 -16 -4 -10 -13 -13 -25
-9 -11 3 -22 1 -26 -5 -5 -8 -11 -8 -21 1 -11 9 -19 8 -39 -5 -30 -20 -94 -21
-121 -1 -49 34 -55 122 -11 163 12 11 37 24 55 29 l33 8 -21 22 c-12 14 -21
37 -22 62 -1 30 -6 42 -24 50 -20 9 -27 6 -48 -20z"/>
<path d="M1702 1743 l-23 -4 26 -31 c20 -23 25 -40 23 -67 -3 -31 -6 -36 -25
-34 -27 3 -31 -13 -5 -20 39 -11 112 15 120 43 4 12 2 13 -9 3 -36 -35 -74 7
-67 76 2 24 -1 40 -7 40 -5 -1 -20 -4 -33 -6z"/>
<path d="M1777 1703 c-15 -15 -6 -43 13 -43 11 0 20 6 20 14 0 17 -24 38 -33
29z"/>
<path d="M1662 1658 c2 -12 11 -24 21 -26 14 -3 18 1 15 20 -2 12 -11 24 -21
26 -14 3 -18 -1 -15 -20z"/>
</g>
</svg>
