<svg width="100" height="100" viewBox="0 0 100 100" xmlns="http://www.w3.org/2000/svg">
  <style>
    .body {
      fill: url(#premiumGradient);
      stroke: #a259ff;
      stroke-width: 2.2;
      filter: drop-shadow(0 0 8px #a259ff33);
    }
    .neon {
      stroke: #a259ff;
      stroke-width: 2.5;
      fill: none;
      filter: drop-shadow(0 0 6px #a259ff88);
      animation: pulse 2s infinite, shimmer 4s infinite;
    }
    .eyes {
      fill: #fff;
      stroke: #a259ff;
      stroke-width: 1.2;
      filter: drop-shadow(0 0 2px #a259ff88);
      animation: glow 3s infinite;
    }
    .beak {
      fill: #ffd700;
      stroke: #a259ff;
      stroke-width: 1.2;
    }
    @keyframes pulse {
      0% { filter: drop-shadow(0 0 2px #a259ff); }
      50% { filter: drop-shadow(0 0 12px #a259ff); }
      100% { filter: drop-shadow(0 0 2px #a259ff); }
    }
    @keyframes shimmer {
      0% { stroke-opacity: 1; }
      50% { stroke-opacity: 0.7; }
      100% { stroke-opacity: 1; }
    }
    @keyframes glow {
      0% { fill: #fff; }
      50% { fill: #e6e6fa; }
      100% { fill: #fff; }
    }
  </style>
  <defs>
    <linearGradient id="premiumGradient" x1="0%" y1="0%" x2="100%" y2="100%">
      <stop offset="0%" style="stop-color:#f8f7ff;stop-opacity:1" />
      <stop offset="100%" style="stop-color:#e6e6fa;stop-opacity:1" />
    </linearGradient>
  </defs>
  <!-- Owl Body -->
  <path d="M30 70 C30 85, 70 85, 70 70 C70 60, 60 50, 50 50 C40 50, 30 60, 30 70" class="body"/>
  <!-- Owl Head -->
  <circle cx="50" cy="40" r="25" class="body"/>
  <!-- Eyes -->
  <circle cx="42" cy="38" r="6" class="eyes"/>
  <circle cx="58" cy="38" r="6" class="eyes"/>
  <!-- Eye Highlights -->
  <circle cx="40" cy="36" r="2" fill="#ffffff"/>
  <circle cx="56" cy="36" r="2" fill="#ffffff"/>
  <!-- Beak -->
  <path d="M48 44 L50 48 L52 44" class="beak"/>
  <!-- Wings -->
  <path d="M30 60 C20 65, 20 75, 25 80" class="neon"/>
  <path d="M70 60 C80 65, 80 75, 75 80" class="neon"/>
</svg>