<svg viewBox="89.43324607329845 98.4375 122.13350785340315 220.50000000000003" fill="none" xmlns="http://www.w3.org/2000/svg" xmlns:xlink="http://www.w3.org/1999/xlink" overflow="visible" width="122.13350785340315px" height="220.50000000000003px"><g id="Master/Worms/Poh"><g id="Body/Poh" transform="translate(92.457 113.4) scale(1 1)"><g id="Body/Poh/Purple"><g id="Group 11"><g id="Group 3"><path id="Fill 1" fill-rule="evenodd" clip-rule="evenodd" d="M118.501 81.3973C118.501 74.8333 115.578 68.9623 110.977 64.9783C115.578 60.9943 118.501 55.1233 118.501 48.5593C118.501 36.5593 108.773 26.8313 96.7728 26.8313C96.5588 26.8313 96.3508 26.8563 96.1378 26.8633C96.5368 25.2143 96.7728 23.5013 96.7728 21.7293C96.7728 9.7283 87.0448 0.000305176 75.0448 0.000305176C69.0788 0.000305176 63.6778 2.40831 59.7508 6.30031C55.8238 2.40831 50.4228 0.000305176 44.4568 0.000305176C32.4568 0.000305176 22.7288 9.7283 22.7288 21.7293C22.7288 23.5013 22.9638 25.2143 23.3638 26.8633C23.1508 26.8563 22.9428 26.8313 22.7288 26.8313C10.7288 26.8313 0.999756 36.5593 0.999756 48.5593C0.999756 55.1233 3.92376 60.9943 8.52376 64.9783C3.92376 68.9623 0.999756 74.8333 0.999756 81.3973C0.999756 87.9613 3.92376 93.8323 8.52376 97.8163C3.92376 101.8 0.999756 107.671 0.999756 114.235C0.999756 120.799 3.92376 126.669 8.52376 130.653C3.92376 134.638 0.999756 140.508 0.999756 147.072C0.999756 153.637 3.92376 159.507 8.52376 163.492C3.92376 167.476 0.999756 173.346 0.999756 179.91C0.999756 191.305 9.77576 200.634 20.9358 201.548L20.9338 201.639H96.7728C108.773 201.639 118.501 191.91 118.501 179.91C118.501 173.346 115.578 167.476 110.977 163.492C115.578 159.507 118.501 153.637 118.501 147.072C118.501 140.508 115.578 134.638 110.977 130.653C115.578 126.669 118.501 120.799 118.501 114.235C118.501 107.671 115.578 101.8 110.977 97.8163C115.578 93.8323 118.501 87.9613 118.501 81.3973" fill="#8549d1"/></g><g id="Group 6"><path id="Fill 4" fill-rule="evenodd" clip-rule="evenodd" d="M2.119 88.2821L2.337 88.4791C4.639 90.6791 7.574 90.6791 9.876 88.4791L10.037 88.3251C12.354 86.1101 15.313 86.1261 17.62 88.3671C19.943 90.6231 22.924 90.6231 25.247 88.3671C27.554 86.1261 30.512 86.1101 32.83 88.3241L32.98 88.4691C35.282 90.6681 38.218 90.6681 40.519 88.4691L40.701 88.2951C43.003 86.0951 45.938 86.0951 48.24 88.2951L48.359 88.4091C50.661 90.6091 53.597 90.6091 55.898 88.4091L56.142 88.1761C58.444 85.9761 61.379 85.9761 63.682 88.1761L63.801 88.2901C66.102 90.4901 69.037 90.4901 71.34 88.2901L71.396 88.2361C73.698 86.0361 76.634 86.0361 78.935 88.2361L79.072 88.3661C81.374 90.5661 84.309 90.5661 86.611 88.3661L86.707 88.2761C89.009 86.0761 91.943 86.0761 94.245 88.2761L94.351 88.3771C96.654 90.5771 99.589 90.5771 101.89 88.3771L102.148 88.1321C104.45 85.9321 107.385 85.9321 109.686 88.1321L109.896 88.3321C112.198 90.5321 115.032 90.6261 117.334 88.4271C116.073 92.0991 113.852 95.3261 110.976 97.8161C115.578 101.8 118.501 107.671 118.501 114.235C118.501 120.8 115.578 126.67 110.976 130.654C115.578 134.638 118.501 140.509 118.501 147.073C118.501 153.637 115.578 159.507 110.976 163.492C115.578 167.476 118.501 173.346 118.501 179.91C118.501 191.91 108.773 201.639 96.773 201.639H20.933L20.935 201.549C9.776 200.635 1 191.305 1 179.91C1 173.346 3.924 167.476 8.524 163.492C3.924 159.507 1 153.637 1 147.073C1 140.509 3.924 134.638 8.524 130.654C3.924 126.67 1 120.8 1 114.235C1 107.671 3.924 101.8 8.524 97.8161C5.611 95.2931 3.37 92.0141 2.119 88.2821" fill="#64379e"/></g><path id="Fill 7" fill-rule="evenodd" clip-rule="evenodd" d="M58.201 46.8197C58.201 56.5687 50.298 64.4717 40.549 64.4717C30.8 64.4717 22.896 56.5687 22.896 46.8197C22.896 37.0697 30.8 29.1677 40.549 29.1677C50.298 29.1677 58.201 37.0697 58.201 46.8197" fill="#ff6990"/><path id="Fill 9" fill-rule="evenodd" clip-rule="evenodd" d="M96.6053 46.8197C96.6053 56.5687 88.7023 64.4717 78.9533 64.4717C69.2033 64.4717 61.2993 56.5687 61.2993 46.8197C61.2993 37.0697 69.2033 29.1677 78.9533 29.1677C88.7023 29.1677 96.6053 37.0697 96.6053 46.8197" fill="#ff6990"/></g></g></g><g id="Eyes/Poh" transform="translate(131.918 153.017) scale(1 1)"><g id="Eyes/Poh/Angry"><g id="Group 7"><g id="Group 3"><path id="Fill 1" fill-rule="evenodd" clip-rule="evenodd" d="M12.959 5.24431L9.056 2.33631C8.693 2.06631 8.249 1.95231 7.795 2.01831C7.346 2.08331 6.948 2.32031 6.678 2.68431C6.406 3.04831 6.293 3.49631 6.358 3.94531C6.424 4.39431 6.661 4.79131 7.025 5.06231L9.616 6.99331L6.778 8.82131C5.991 9.32931 5.763 10.3833 6.27 11.1713C6.585 11.6593 7.12 11.9503 7.7 11.9503C8.026 11.9503 8.344 11.8563 8.619 11.6803L12.833 8.96531C13.456 8.56331 13.844 7.88031 13.87 7.13731C13.895 6.39531 13.554 5.68831 12.959 5.24431" fill="#1d102e"/></g><g id="Group 6"><path id="Fill 4" fill-rule="evenodd" clip-rule="evenodd" d="M32.793 8.87031L30.227 7.02631L33.087 5.11231C33.866 4.59231 34.076 3.53431 33.556 2.75531C33.033 1.97531 31.976 1.76531 31.198 2.28731L26.978 5.10931C26.359 5.52131 25.983 6.21131 25.971 6.95331C25.959 7.69631 26.312 8.39831 26.914 8.83131L30.81 11.6303C31.1 11.8403 31.442 11.9503 31.8 11.9503C32.347 11.9503 32.863 11.6853 33.182 11.2423C33.729 10.4823 33.554 9.41831 32.793 8.87031" fill="#1d102e"/></g></g></g></g><g id="Mouth/Poh" transform="translate(131.904 166.433) scale(0.975609756097561 1)"><g id="Mouth/Poh/Angry"><g id="Group 3"><path id="Fill 1" fill-rule="evenodd" clip-rule="evenodd" d="M20.1583 1.0002C25.9153 1.0002 31.0263 3.0892 34.0293 5.0502C37.4973 7.3142 38.4713 11.9622 36.2073 15.4302C33.9553 18.8772 29.3503 19.8612 25.8883 17.6482C25.2623 17.2632 20.1343 14.2962 15.7983 17.4172C12.4353 19.8342 7.74832 19.0722 5.33032 15.7092C2.91132 12.3472 3.67632 7.6602 7.03832 5.2412C11.3733 2.1232 15.9383 1.0002 20.1583 1.0002" fill="#1d102e"/></g></g></g><g id="Hair/Poh" transform="translate(80.918 60.5) scale(1 1)"><g id="Hair/Poh/Blue Puff"><g id="Group 3"><path id="Fill 1" fill-rule="evenodd" clip-rule="evenodd" d="M49 48.0217C49 42.3037 52.794 39.0007 52.794 39.0007C64.94 51.0377 80.228 41.8237 92.586 41.8237C102.95 41.8237 112.475 50.8667 112.475 62.3137C112.475 68.1407 110.192 72.2767 108.478 74.5887C108.478 74.5887 106.599 70.1677 102.486 66.6387C97.378 62.2547 90.944 62.9987 89.445 71.2167C87.893 79.7277 80.718 86.3357 71.796 86.3357C61.932 86.3357 53.935 78.3387 53.935 68.4737C53.935 65.2317 54.799 62.1907 56.309 59.5697C51.547 57.1577 48.999 52.8317 49 48.0217" fill="#1cb4d0"/></g></g></g><g id="Clothes/Poh" transform="translate(92.918 199) scale(1 1)"><g id="Clothes/Poh/Snow Crystals"><g id="Group 23"><g id="Group 3"><path id="Fill 1" fill-rule="evenodd" clip-rule="evenodd" d="M8.07429 12.2082L8.30529 12.4242C10.3513 14.3792 12.9593 14.3792 15.0043 12.4242L15.1473 12.2882C17.2073 10.3192 19.8353 10.3342 21.8853 12.3252C23.9483 14.3292 26.5963 14.3292 28.6603 12.3252C30.7103 10.3342 33.3383 10.3192 35.3973 12.2872L35.5313 12.4152C37.5763 14.3702 40.1833 14.3702 42.2293 12.4152L42.3903 12.2612C44.4353 10.3072 47.0433 10.3072 49.0883 12.2612L49.1943 12.3622C51.2393 14.3172 53.8463 14.3172 55.8923 12.3622L56.1093 12.1552C58.1543 10.2012 60.7623 10.2012 62.8063 12.1552L62.9133 12.2572C64.9583 14.2112 67.5653 14.2112 69.6103 12.2572L69.6613 12.2082C71.7073 10.2542 74.3143 10.2542 76.3593 12.2082L76.4813 12.3242C78.5263 14.2792 81.1343 14.2792 83.1783 12.3242L83.2633 12.2442C85.3083 10.2892 87.9163 10.2892 89.9623 12.2442L90.0553 12.3342C92.1003 14.2882 94.7093 14.2882 96.7543 12.3342L96.9823 12.1162C99.0273 10.1612 101.635 10.1612 103.679 12.1162L103.866 12.2932C105.911 14.2482 108.481 14.1632 110.526 12.2082C115.128 16.1922 118.051 22.0632 118.051 28.6272C118.051 35.1912 115.128 41.0622 110.526 45.0462C115.128 49.0302 118.051 54.9002 118.051 61.4652C118.051 68.0292 115.128 73.8992 110.526 77.8842C115.128 81.8682 118.051 87.7382 118.051 94.3022C118.051 106.302 108.323 116.031 96.3233 116.031H20.4833L20.4863 115.94C9.32629 115.026 0.550293 105.697 0.550293 94.3022C0.550293 87.7382 3.47329 81.8682 8.07429 77.8842C3.47329 73.8992 0.550293 68.0292 0.550293 61.4652C0.550293 54.9002 3.47329 49.0302 8.07429 45.0462C3.47329 41.0622 0.550293 35.1912 0.550293 28.6272C0.550293 22.0632 3.47329 16.1922 8.07429 12.2082" fill="#2bdeff"/></g><g id="Group 6"><path id="Fill 4" fill-rule="evenodd" clip-rule="evenodd" d="M0.549805 61.4646C0.549805 68.0286 3.4738 73.8996 8.0738 77.8836C7.9158 78.0206 7.7648 78.1656 7.6108 78.3066H110.99C110.836 78.1656 110.685 78.0206 110.527 77.8836C115.128 73.8996 118.051 68.0286 118.051 61.4646C118.051 54.9006 115.128 49.0296 110.527 45.0456H8.0738C3.4738 49.0296 0.549805 54.9006 0.549805 61.4646" fill="#9250e6"/></g><path id="Fill 7" fill-rule="evenodd" clip-rule="evenodd" d="M27.047 29.5642H23.143L24.849 27.8592C25.243 27.4652 25.243 26.8252 24.849 26.4302C24.454 26.0362 23.815 26.0362 23.42 26.4302L21.715 28.1362V24.2312C21.715 23.6742 21.262 23.2212 20.704 23.2212C20.147 23.2212 19.694 23.6742 19.694 24.2312V28.1352L17.989 26.4302C17.595 26.0362 16.955 26.0362 16.561 26.4302C16.166 26.8252 16.166 27.4652 16.561 27.8592L18.267 29.5642H14.362C13.805 29.5642 13.353 30.0172 13.353 30.5742C13.353 31.1322 13.805 31.5842 14.362 31.5842H18.267L16.561 33.2902C16.166 33.6842 16.166 34.3232 16.561 34.7182C16.758 34.9152 17.017 35.0142 17.276 35.0142C17.533 35.0142 17.792 34.9152 17.989 34.7182L19.694 33.0132V36.9172C19.694 37.4752 20.147 37.9272 20.704 37.9272C21.262 37.9272 21.715 37.4752 21.715 36.9172V33.0122L23.42 34.7182C23.617 34.9152 23.876 35.0142 24.134 35.0142C24.393 35.0142 24.651 34.9152 24.849 34.7182C25.243 34.3232 25.243 33.6842 24.849 33.2902L23.143 31.5842H27.047C27.605 31.5842 28.057 31.1322 28.057 30.5742C28.057 30.0172 27.605 29.5642 27.047 29.5642" fill="#ffffff"/><path id="Fill 9" fill-rule="evenodd" clip-rule="evenodd" d="M64.2785 29.5642H60.3745L62.0795 27.8592C62.4735 27.4652 62.4735 26.8252 62.0795 26.4302C61.6845 26.0362 61.0465 26.0362 60.6515 26.4302L58.9465 28.1352V24.2312C58.9465 23.6742 58.4945 23.2212 57.9355 23.2212C57.3785 23.2212 56.9255 23.6742 56.9255 24.2312V28.1362L55.2205 26.4302C54.8265 26.0362 54.1865 26.0362 53.7925 26.4302C53.3975 26.8252 53.3975 27.4652 53.7925 27.8592L55.4975 29.5642H51.5935C51.0355 29.5642 50.5835 30.0172 50.5835 30.5742C50.5835 31.1322 51.0355 31.5842 51.5935 31.5842H55.4975L53.7925 33.2902C53.3975 33.6842 53.3975 34.3232 53.7925 34.7182C53.9895 34.9152 54.2485 35.0142 54.5065 35.0142C54.7645 35.0142 55.0235 34.9152 55.2205 34.7182L56.9255 33.0122V36.9172C56.9255 37.4752 57.3785 37.9272 57.9355 37.9272C58.4945 37.9272 58.9465 37.4752 58.9465 36.9172V33.0132L60.6515 34.7182C60.8485 34.9152 61.1065 35.0142 61.3655 35.0142C61.6245 35.0142 61.8825 34.9152 62.0795 34.7182C62.4735 34.3232 62.4735 33.6842 62.0795 33.2902L60.3745 31.5842H64.2785C64.8375 31.5842 65.2895 31.1322 65.2895 30.5742C65.2895 30.0172 64.8375 29.5642 64.2785 29.5642" fill="#ffffff"/><path id="Fill 11" fill-rule="evenodd" clip-rule="evenodd" d="M101.51 29.5642H97.6059L99.3119 27.8592C99.7059 27.4652 99.7059 26.8252 99.3119 26.4302C98.9169 26.0362 98.2779 26.0362 97.8829 26.4302L96.1779 28.1362V24.2312C96.1779 23.6742 95.7249 23.2212 95.1669 23.2212C94.6099 23.2212 94.1569 23.6742 94.1569 24.2312V28.1352L92.4519 26.4302C92.0579 26.0362 91.4179 26.0362 91.0239 26.4302C90.6289 26.8252 90.6289 27.4652 91.0239 27.8592L92.7299 29.5642H88.8249C88.2679 29.5642 87.8159 30.0172 87.8159 30.5742C87.8159 31.1322 88.2679 31.5842 88.8249 31.5842H92.7299L91.0239 33.2902C90.6289 33.6842 90.6289 34.3232 91.0239 34.7182C91.2209 34.9152 91.4799 35.0142 91.7389 35.0142C91.9959 35.0142 92.2549 34.9152 92.4519 34.7182L94.1569 33.0132V36.9172C94.1569 37.4752 94.6099 37.9272 95.1669 37.9272C95.7249 37.9272 96.1779 37.4752 96.1779 36.9172V33.0122L97.8829 34.7182C98.0799 34.9152 98.3389 35.0142 98.5969 35.0142C98.8559 35.0142 99.1139 34.9152 99.3119 34.7182C99.7059 34.3232 99.7059 33.6842 99.3119 33.2902L97.6059 31.5842H101.51C102.068 31.5842 102.52 31.1322 102.52 30.5742C102.52 30.0172 102.068 29.5642 101.51 29.5642" fill="#ffffff"/><path id="Fill 13" fill-rule="evenodd" clip-rule="evenodd" d="M27.047 95.4885H23.143L24.849 93.7835C25.243 93.3895 25.243 92.7495 24.849 92.3555C24.454 91.9605 23.815 91.9605 23.42 92.3555L21.715 94.0605V90.1555C21.715 89.5985 21.262 89.1455 20.704 89.1455C20.147 89.1455 19.694 89.5985 19.694 90.1555V94.0605L17.989 92.3555C17.595 91.9605 16.955 91.9605 16.561 92.3555C16.166 92.7495 16.166 93.3895 16.561 93.7835L18.267 95.4885H14.362C13.805 95.4885 13.353 95.9415 13.353 96.4985C13.353 97.0565 13.805 97.5085 14.362 97.5085H18.267L16.561 99.2145C16.166 99.6085 16.166 100.247 16.561 100.642C16.758 100.839 17.017 100.939 17.276 100.939C17.533 100.939 17.792 100.839 17.989 100.642L19.694 98.9375V102.842C19.694 103.4 20.147 103.852 20.704 103.852C21.262 103.852 21.715 103.4 21.715 102.842V98.9365L23.42 100.642C23.617 100.839 23.876 100.939 24.134 100.939C24.393 100.939 24.651 100.839 24.849 100.642C25.243 100.247 25.243 99.6085 24.849 99.2145L23.143 97.5085H27.047C27.605 97.5085 28.057 97.0565 28.057 96.4985C28.057 95.9415 27.605 95.4885 27.047 95.4885" fill="#ffffff"/><path id="Fill 15" fill-rule="evenodd" clip-rule="evenodd" d="M64.2785 95.4885H60.3745L62.0795 93.7835C62.4735 93.3895 62.4735 92.7495 62.0795 92.3555C61.6845 91.9605 61.0465 91.9605 60.6515 92.3555L58.9465 94.0605V90.1555C58.9465 89.5985 58.4945 89.1455 57.9355 89.1455C57.3785 89.1455 56.9255 89.5985 56.9255 90.1555V94.0605L55.2205 92.3555C54.8265 91.9605 54.1865 91.9605 53.7925 92.3555C53.3975 92.7495 53.3975 93.3895 53.7925 93.7835L55.4975 95.4885H51.5935C51.0355 95.4885 50.5835 95.9415 50.5835 96.4985C50.5835 97.0565 51.0355 97.5085 51.5935 97.5085H55.4975L53.7925 99.2145C53.3975 99.6085 53.3975 100.247 53.7925 100.642C53.9895 100.839 54.2485 100.939 54.5065 100.939C54.7645 100.939 55.0235 100.839 55.2205 100.642L56.9255 98.9365V102.842C56.9255 103.4 57.3785 103.852 57.9355 103.852C58.4945 103.852 58.9465 103.4 58.9465 102.842V98.9375L60.6515 100.642C60.8485 100.839 61.1065 100.939 61.3655 100.939C61.6245 100.939 61.8825 100.839 62.0795 100.642C62.4735 100.247 62.4735 99.6085 62.0795 99.2145L60.3745 97.5085H64.2785C64.8375 97.5085 65.2895 97.0565 65.2895 96.4985C65.2895 95.9415 64.8375 95.4885 64.2785 95.4885" fill="#ffffff"/><path id="Fill 17" fill-rule="evenodd" clip-rule="evenodd" d="M101.51 95.4885H97.6059L99.3119 93.7835C99.7059 93.3895 99.7059 92.7495 99.3119 92.3555C98.9169 91.9605 98.2779 91.9605 97.8829 92.3555L96.1779 94.0605V90.1555C96.1779 89.5985 95.7249 89.1455 95.1669 89.1455C94.6099 89.1455 94.1569 89.5985 94.1569 90.1555V94.0605L92.4519 92.3555C92.0579 91.9605 91.4179 91.9605 91.0239 92.3555C90.6289 92.7495 90.6289 93.3895 91.0239 93.7835L92.7299 95.4885H88.8249C88.2679 95.4885 87.8159 95.9415 87.8159 96.4985C87.8159 97.0565 88.2679 97.5085 88.8249 97.5085H92.7299L91.0239 99.2145C90.6289 99.6085 90.6289 100.247 91.0239 100.642C91.2209 100.839 91.4799 100.939 91.7389 100.939C91.9959 100.939 92.2549 100.839 92.4519 100.642L94.1569 98.9375V102.842C94.1569 103.4 94.6099 103.852 95.1669 103.852C95.7249 103.852 96.1779 103.4 96.1779 102.842V98.9365L97.8829 100.642C98.0799 100.839 98.3389 100.939 98.5969 100.939C98.8559 100.939 99.1139 100.839 99.3119 100.642C99.7059 100.247 99.7059 99.6085 99.3119 99.2145L97.6059 97.5085H101.51C102.068 97.5085 102.52 97.0565 102.52 96.4985C102.52 95.9415 102.068 95.4885 101.51 95.4885" fill="#ffffff"/><path id="Fill 19" fill-rule="evenodd" clip-rule="evenodd" d="M44.4865 60.3659H40.5835L42.2875 58.6609C42.6825 58.2669 42.6825 57.6269 42.2875 57.2329C41.8925 56.8379 41.2545 56.8379 40.8595 57.2329L39.1545 58.9379V55.0329C39.1545 54.4759 38.7025 54.0239 38.1445 54.0239C37.5865 54.0239 37.1335 54.4759 37.1335 55.0329V58.9379L35.4285 57.2329C35.0345 56.8379 34.3945 56.8379 34.0005 57.2329C33.6055 57.6269 33.6055 58.2669 34.0005 58.6609L35.7055 60.3659H31.8015C31.2445 60.3659 30.7915 60.8189 30.7915 61.3759C30.7915 61.9339 31.2445 62.3869 31.8015 62.3869H35.7055L34.0005 64.0919C33.6055 64.4859 33.6055 65.1259 34.0005 65.5199C34.1975 65.7179 34.4565 65.8159 34.7155 65.8159C34.9725 65.8159 35.2315 65.7179 35.4285 65.5199L37.1335 63.8149V67.7189C37.1335 68.2769 37.5865 68.7289 38.1445 68.7289C38.7025 68.7289 39.1545 68.2769 39.1545 67.7189V63.8149L40.8595 65.5199C41.0565 65.7179 41.3155 65.8159 41.5735 65.8159C41.8325 65.8159 42.0905 65.7179 42.2875 65.5199C42.6825 65.1259 42.6825 64.4859 42.2875 64.0919L40.5825 62.3869H44.4865C45.0455 62.3869 45.4975 61.9339 45.4975 61.3759C45.4975 60.8189 45.0455 60.3659 44.4865 60.3659" fill="#ffffff"/><path id="Fill 21" fill-rule="evenodd" clip-rule="evenodd" d="M82.9191 60.3659H79.0161L80.7201 58.6609C81.1151 58.2669 81.1151 57.6269 80.7201 57.2329C80.3251 56.8379 79.6871 56.8379 79.2921 57.2329L77.5871 58.9379V55.0329C77.5871 54.4759 77.1351 54.0239 76.5771 54.0239C76.0191 54.0239 75.5661 54.4759 75.5661 55.0329V58.9379L73.8611 57.2329C73.4671 56.8379 72.8271 56.8379 72.4331 57.2329C72.0381 57.6269 72.0381 58.2669 72.4331 58.6609L74.1381 60.3659H70.2341C69.6771 60.3659 69.2241 60.8189 69.2241 61.3759C69.2241 61.9339 69.6771 62.3869 70.2341 62.3869H74.1381L72.4331 64.0919C72.0381 64.4859 72.0381 65.1259 72.4331 65.5199C72.6301 65.7179 72.8891 65.8159 73.1481 65.8159C73.4051 65.8159 73.6641 65.7179 73.8611 65.5199L75.5661 63.8149V67.7189C75.5661 68.2769 76.0191 68.7289 76.5771 68.7289C77.1351 68.7289 77.5871 68.2769 77.5871 67.7189V63.8149L79.2921 65.5199C79.4891 65.7179 79.7481 65.8159 80.0061 65.8159C80.2651 65.8159 80.5231 65.7179 80.7201 65.5199C81.1151 65.1259 81.1151 64.4859 80.7201 64.0919L79.0151 62.3869H82.9191C83.4781 62.3869 83.9301 61.9339 83.9301 61.3759C83.9301 60.8189 83.4781 60.3659 82.9191 60.3659" fill="#ffffff"/></g></g></g></g></svg>